# xmcd CD Database Entry
#
# Track frame offsets:
# 150
# 16820
# 31080
# 46732
# 70552
# 89195
# 104330
# 121155
# 137340
# 150860
#
# Disc length: 2286 seconds
#
# Revision: 1
# Processed by: cddbd v1.4b41PL1 Copyright (c) Steve Scherf et al.
# Submitted via: tcd 2.0b
#
DISCID=6a08ec0a
DTITLE=Gator Beat - Mardi Gras Fever
DYEAR=1900
DGENRE=
TTITLE0=Mardi Gras Fever
TTITLE1=Iko
TTITLE2=Dance All Night
TTITLE3=Just Be Mine
TTITLE4=Johnny Peut Pas Danser
TTITLE5=Brother John
TTITLE6=J'étais au Bal
TTITLE7=Longtemps Passé
TTITLE8=Lacssine Special
TTITLE9=Handa Wanda
EXTD=
EXTT0=
EXTT1=
EXTT2=
EXTT3=
EXTT4=
EXTT5=
EXTT6=
EXTT7=
EXTT8=
EXTT9=
PLAYORDER=
